# xmcd
#
# Track frame offsets:
# 150
# 14809
# 29991
# 47004
# 63076
# 74144
# 88432
# 107427
# 124838
# 140251
# 155202
# 170933
#
# Disc length: 2537 seconds
#
#
# Revision: 0
# Processed by: cddbd v1.5.1PL0 Copyright (c) Steve Scherf et al.
# Submitted via: FreeRIP 2.92 
#
DISCID=be09e70c
DTITLE=Doc Holiday - It  all comes back to me
DYEAR=1900
DGENRE=Country
TTITLE0=It  all comes back to me
TTITLE1=Alice in Wonderland
TTITLE2=In America
TTITLE3=I can't take my heart anywhere
TTITLE4=Love ain't for the weak at heart
TTITLE5=Amnesia
TTITLE6=What ever you want
TTITLE7=Who are "they"
TTITLE8=I tried  to work for Jesus (but the devil offered more)
TTITLE9=Memories get in the way
TTITLE10=On and on she cries
TTITLE11=That 503 number
EXTD=
EXTT0=
EXTT1=
EXTT2=
EXTT3=
EXTT4=
EXTT5=
EXTT6=
EXTT7=
EXTT8=
EXTT9=
EXTT10=
EXTT11=
PLAYORDER=
